<mxfile host="app.diagrams.net" modified="2020-12-08T12:01:00.874Z" agent="5.0 (Windows NT 10.0; Win64; x64) AppleWebKit/537.36 (KHTML, like Gecko) Chrome/86.0.4240.198 Safari/537.36" etag="BInn4oYgSrA4JynjT5I2" version="13.10.9" type="github">
  <diagram id="1VBkGIsWjdfDKAxt30Ab" name="Page-1">
    <mxGraphModel dx="1221" dy="645" grid="1" gridSize="10" guides="1" tooltips="1" connect="1" arrows="1" fold="1" page="1" pageScale="1" pageWidth="850" pageHeight="1100" math="0" shadow="0">
      <root>
        <mxCell id="0" />
        <mxCell id="1" parent="0" />
        <mxCell id="_kQpHTSrU0ZWc6XCJ_GE-1" value="Actor" style="shape=umlActor;verticalLabelPosition=bottom;verticalAlign=top;html=1;outlineConnect=0;" vertex="1" parent="1">
          <mxGeometry x="10" y="840" width="30" height="60" as="geometry" />
        </mxCell>
        <mxCell id="_kQpHTSrU0ZWc6XCJ_GE-2" value="String&lt;br&gt;cityName" style="edgeStyle=orthogonalEdgeStyle;rounded=0;orthogonalLoop=1;jettySize=auto;html=1;entryX=0;entryY=0.5;entryDx=0;entryDy=0;" edge="1" parent="1" source="_kQpHTSrU0ZWc6XCJ_GE-4" target="_kQpHTSrU0ZWc6XCJ_GE-9">
          <mxGeometry relative="1" as="geometry" />
        </mxCell>
        <mxCell id="_kQpHTSrU0ZWc6XCJ_GE-3" style="edgeStyle=orthogonalEdgeStyle;rounded=0;sketch=0;orthogonalLoop=1;jettySize=auto;html=1;exitX=0.25;exitY=1;exitDx=0;exitDy=0;entryX=0;entryY=0.75;entryDx=0;entryDy=0;startArrow=none;startFill=0;endArrow=openThin;endFill=0;" edge="1" parent="1" source="_kQpHTSrU0ZWc6XCJ_GE-4" target="_kQpHTSrU0ZWc6XCJ_GE-31">
          <mxGeometry relative="1" as="geometry" />
        </mxCell>
        <mxCell id="_kQpHTSrU0ZWc6XCJ_GE-4" value="view" style="rounded=0;whiteSpace=wrap;html=1;" vertex="1" parent="1">
          <mxGeometry x="110" y="840" width="120" height="60" as="geometry" />
        </mxCell>
        <mxCell id="_kQpHTSrU0ZWc6XCJ_GE-5" value="String &lt;br&gt;cityName" style="edgeStyle=orthogonalEdgeStyle;rounded=0;orthogonalLoop=1;jettySize=auto;html=1;exitX=0.75;exitY=0;exitDx=0;exitDy=0;entryX=0;entryY=0.75;entryDx=0;entryDy=0;" edge="1" parent="1" source="_kQpHTSrU0ZWc6XCJ_GE-9" target="_kQpHTSrU0ZWc6XCJ_GE-14">
          <mxGeometry relative="1" as="geometry" />
        </mxCell>
        <mxCell id="_kQpHTSrU0ZWc6XCJ_GE-6" style="edgeStyle=orthogonalEdgeStyle;rounded=0;orthogonalLoop=1;jettySize=auto;html=1;exitX=0.75;exitY=1;exitDx=0;exitDy=0;entryX=0;entryY=0.5;entryDx=0;entryDy=0;" edge="1" parent="1" source="_kQpHTSrU0ZWc6XCJ_GE-9" target="_kQpHTSrU0ZWc6XCJ_GE-16">
          <mxGeometry relative="1" as="geometry" />
        </mxCell>
        <mxCell id="_kQpHTSrU0ZWc6XCJ_GE-7" style="edgeStyle=orthogonalEdgeStyle;rounded=0;sketch=0;orthogonalLoop=1;jettySize=auto;html=1;exitX=0.5;exitY=1;exitDx=0;exitDy=0;startArrow=none;startFill=0;endArrow=openThin;endFill=0;" edge="1" parent="1" source="_kQpHTSrU0ZWc6XCJ_GE-9" target="_kQpHTSrU0ZWc6XCJ_GE-31">
          <mxGeometry relative="1" as="geometry" />
        </mxCell>
        <mxCell id="_kQpHTSrU0ZWc6XCJ_GE-8" style="edgeStyle=orthogonalEdgeStyle;rounded=0;sketch=0;orthogonalLoop=1;jettySize=auto;html=1;exitX=0;exitY=0.75;exitDx=0;exitDy=0;entryX=1;entryY=0.75;entryDx=0;entryDy=0;startArrow=none;startFill=0;endArrow=openThin;endFill=0;" edge="1" parent="1" source="_kQpHTSrU0ZWc6XCJ_GE-9" target="_kQpHTSrU0ZWc6XCJ_GE-4">
          <mxGeometry relative="1" as="geometry">
            <Array as="points">
              <mxPoint x="300" y="783" />
              <mxPoint x="300" y="885" />
            </Array>
          </mxGeometry>
        </mxCell>
        <mxCell id="_kQpHTSrU0ZWc6XCJ_GE-9" value="weather controller" style="rounded=0;whiteSpace=wrap;html=1;" vertex="1" parent="1">
          <mxGeometry x="260" y="738" width="120" height="60" as="geometry" />
        </mxCell>
        <mxCell id="_kQpHTSrU0ZWc6XCJ_GE-10" value="" style="endArrow=classic;html=1;entryX=0;entryY=0.5;entryDx=0;entryDy=0;" edge="1" parent="1" source="_kQpHTSrU0ZWc6XCJ_GE-1" target="_kQpHTSrU0ZWc6XCJ_GE-4">
          <mxGeometry relative="1" as="geometry">
            <mxPoint x="50" y="970" as="sourcePoint" />
            <mxPoint x="150" y="970" as="targetPoint" />
            <Array as="points">
              <mxPoint x="70" y="870" />
            </Array>
          </mxGeometry>
        </mxCell>
        <mxCell id="_kQpHTSrU0ZWc6XCJ_GE-11" value="City name" style="edgeLabel;resizable=0;html=1;align=center;verticalAlign=middle;" connectable="0" vertex="1" parent="_kQpHTSrU0ZWc6XCJ_GE-10">
          <mxGeometry relative="1" as="geometry" />
        </mxCell>
        <mxCell id="_kQpHTSrU0ZWc6XCJ_GE-12" style="edgeStyle=orthogonalEdgeStyle;rounded=0;sketch=0;orthogonalLoop=1;jettySize=auto;html=1;exitX=1;exitY=0.75;exitDx=0;exitDy=0;entryX=0;entryY=0.75;entryDx=0;entryDy=0;startArrow=none;startFill=0;" edge="1" parent="1" source="_kQpHTSrU0ZWc6XCJ_GE-14" target="_kQpHTSrU0ZWc6XCJ_GE-20">
          <mxGeometry relative="1" as="geometry" />
        </mxCell>
        <mxCell id="_kQpHTSrU0ZWc6XCJ_GE-13" style="edgeStyle=orthogonalEdgeStyle;rounded=0;sketch=0;orthogonalLoop=1;jettySize=auto;html=1;exitX=0;exitY=0.25;exitDx=0;exitDy=0;entryX=0.25;entryY=0;entryDx=0;entryDy=0;startArrow=none;startFill=0;" edge="1" parent="1" source="_kQpHTSrU0ZWc6XCJ_GE-14" target="_kQpHTSrU0ZWc6XCJ_GE-9">
          <mxGeometry relative="1" as="geometry" />
        </mxCell>
        <mxCell id="_kQpHTSrU0ZWc6XCJ_GE-14" value="city service" style="rounded=0;whiteSpace=wrap;html=1;" vertex="1" parent="1">
          <mxGeometry x="400" y="658" width="120" height="60" as="geometry" />
        </mxCell>
        <mxCell id="_kQpHTSrU0ZWc6XCJ_GE-15" style="edgeStyle=orthogonalEdgeStyle;rounded=0;orthogonalLoop=1;jettySize=auto;html=1;exitX=1;exitY=0.5;exitDx=0;exitDy=0;entryX=0;entryY=0.5;entryDx=0;entryDy=0;sketch=0;" edge="1" parent="1" source="_kQpHTSrU0ZWc6XCJ_GE-16" target="_kQpHTSrU0ZWc6XCJ_GE-22">
          <mxGeometry relative="1" as="geometry" />
        </mxCell>
        <mxCell id="_kQpHTSrU0ZWc6XCJ_GE-16" value="weather service" style="rounded=0;whiteSpace=wrap;html=1;" vertex="1" parent="1">
          <mxGeometry x="400" y="818" width="120" height="60" as="geometry" />
        </mxCell>
        <mxCell id="_kQpHTSrU0ZWc6XCJ_GE-17" style="edgeStyle=orthogonalEdgeStyle;rounded=0;sketch=0;orthogonalLoop=1;jettySize=auto;html=1;exitX=1;exitY=0.75;exitDx=0;exitDy=0;entryX=0;entryY=1;entryDx=0;entryDy=-15;entryPerimeter=0;startArrow=none;startFill=0;" edge="1" parent="1" source="_kQpHTSrU0ZWc6XCJ_GE-20" target="_kQpHTSrU0ZWc6XCJ_GE-24">
          <mxGeometry relative="1" as="geometry" />
        </mxCell>
        <mxCell id="_kQpHTSrU0ZWc6XCJ_GE-18" style="edgeStyle=orthogonalEdgeStyle;rounded=0;sketch=0;orthogonalLoop=1;jettySize=auto;html=1;exitX=0.75;exitY=0;exitDx=0;exitDy=0;entryX=0;entryY=1;entryDx=0;entryDy=-15;entryPerimeter=0;startArrow=none;startFill=0;" edge="1" parent="1" source="_kQpHTSrU0ZWc6XCJ_GE-20" target="_kQpHTSrU0ZWc6XCJ_GE-27">
          <mxGeometry relative="1" as="geometry" />
        </mxCell>
        <mxCell id="_kQpHTSrU0ZWc6XCJ_GE-19" value="City" style="edgeStyle=orthogonalEdgeStyle;rounded=0;sketch=0;orthogonalLoop=1;jettySize=auto;html=1;exitX=0;exitY=0.25;exitDx=0;exitDy=0;entryX=1;entryY=0.25;entryDx=0;entryDy=0;startArrow=none;startFill=0;" edge="1" parent="1" source="_kQpHTSrU0ZWc6XCJ_GE-20" target="_kQpHTSrU0ZWc6XCJ_GE-14">
          <mxGeometry relative="1" as="geometry" />
        </mxCell>
        <mxCell id="_kQpHTSrU0ZWc6XCJ_GE-20" value="city client" style="rounded=0;whiteSpace=wrap;html=1;" vertex="1" parent="1">
          <mxGeometry x="580" y="658" width="120" height="60" as="geometry" />
        </mxCell>
        <mxCell id="_kQpHTSrU0ZWc6XCJ_GE-21" style="edgeStyle=orthogonalEdgeStyle;rounded=0;sketch=0;orthogonalLoop=1;jettySize=auto;html=1;exitX=1;exitY=0.5;exitDx=0;exitDy=0;entryX=0;entryY=0.5;entryDx=0;entryDy=0;entryPerimeter=0;startArrow=none;startFill=0;" edge="1" parent="1" source="_kQpHTSrU0ZWc6XCJ_GE-22" target="_kQpHTSrU0ZWc6XCJ_GE-25">
          <mxGeometry relative="1" as="geometry" />
        </mxCell>
        <mxCell id="_kQpHTSrU0ZWc6XCJ_GE-22" value="weather client" style="rounded=0;whiteSpace=wrap;html=1;" vertex="1" parent="1">
          <mxGeometry x="580" y="818" width="120" height="60" as="geometry" />
        </mxCell>
        <mxCell id="_kQpHTSrU0ZWc6XCJ_GE-23" value="Json" style="edgeStyle=orthogonalEdgeStyle;rounded=0;sketch=0;orthogonalLoop=1;jettySize=auto;html=1;exitX=0;exitY=0.5;exitDx=0;exitDy=0;exitPerimeter=0;entryX=1;entryY=0.25;entryDx=0;entryDy=0;startArrow=none;startFill=0;" edge="1" parent="1" source="_kQpHTSrU0ZWc6XCJ_GE-24" target="_kQpHTSrU0ZWc6XCJ_GE-20">
          <mxGeometry relative="1" as="geometry" />
        </mxCell>
        <mxCell id="_kQpHTSrU0ZWc6XCJ_GE-24" value="yandex&lt;br&gt;API" style="shape=cylinder3;whiteSpace=wrap;html=1;boundedLbl=1;backgroundOutline=1;size=15;" vertex="1" parent="1">
          <mxGeometry x="760" y="638" width="60" height="80" as="geometry" />
        </mxCell>
        <mxCell id="_kQpHTSrU0ZWc6XCJ_GE-25" value="external API" style="shape=cylinder3;whiteSpace=wrap;html=1;boundedLbl=1;backgroundOutline=1;size=15;" vertex="1" parent="1">
          <mxGeometry x="760" y="808" width="60" height="80" as="geometry" />
        </mxCell>
        <mxCell id="_kQpHTSrU0ZWc6XCJ_GE-26" style="edgeStyle=orthogonalEdgeStyle;rounded=0;sketch=0;orthogonalLoop=1;jettySize=auto;html=1;exitX=0;exitY=0;exitDx=0;exitDy=27.5;exitPerimeter=0;startArrow=none;startFill=0;" edge="1" parent="1" source="_kQpHTSrU0ZWc6XCJ_GE-27" target="_kQpHTSrU0ZWc6XCJ_GE-20">
          <mxGeometry relative="1" as="geometry" />
        </mxCell>
        <mxCell id="_kQpHTSrU0ZWc6XCJ_GE-27" value="txt file" style="shape=cylinder3;whiteSpace=wrap;html=1;boundedLbl=1;backgroundOutline=1;size=15;" vertex="1" parent="1">
          <mxGeometry x="760" y="540" width="60" height="80" as="geometry" />
        </mxCell>
        <mxCell id="_kQpHTSrU0ZWc6XCJ_GE-28" value="Can we compare the name of the city we are searching and the actual name we&#39;ve got form client in our buisness logic?" style="rounded=0;whiteSpace=wrap;html=1;" vertex="1" parent="1">
          <mxGeometry x="50" y="608" width="140" height="140" as="geometry" />
        </mxCell>
        <mxCell id="_kQpHTSrU0ZWc6XCJ_GE-29" style="edgeStyle=orthogonalEdgeStyle;rounded=0;sketch=0;orthogonalLoop=1;jettySize=auto;html=1;exitX=1;exitY=0.5;exitDx=0;exitDy=0;entryX=0;entryY=0.5;entryDx=0;entryDy=0;startArrow=none;startFill=0;endArrow=openThin;endFill=0;" edge="1" parent="1" source="_kQpHTSrU0ZWc6XCJ_GE-31" target="_kQpHTSrU0ZWc6XCJ_GE-33">
          <mxGeometry relative="1" as="geometry" />
        </mxCell>
        <mxCell id="_kQpHTSrU0ZWc6XCJ_GE-30" style="edgeStyle=orthogonalEdgeStyle;rounded=0;sketch=0;orthogonalLoop=1;jettySize=auto;html=1;exitX=0;exitY=0.25;exitDx=0;exitDy=0;entryX=0.5;entryY=1;entryDx=0;entryDy=0;startArrow=none;startFill=0;endArrow=openThin;endFill=0;" edge="1" parent="1" source="_kQpHTSrU0ZWc6XCJ_GE-31" target="_kQpHTSrU0ZWc6XCJ_GE-4">
          <mxGeometry relative="1" as="geometry" />
        </mxCell>
        <mxCell id="_kQpHTSrU0ZWc6XCJ_GE-31" value="outfit controller" style="rounded=0;whiteSpace=wrap;html=1;" vertex="1" parent="1">
          <mxGeometry x="260" y="940" width="120" height="60" as="geometry" />
        </mxCell>
        <mxCell id="_kQpHTSrU0ZWc6XCJ_GE-32" style="edgeStyle=orthogonalEdgeStyle;rounded=0;sketch=0;orthogonalLoop=1;jettySize=auto;html=1;exitX=1;exitY=0.5;exitDx=0;exitDy=0;entryX=0;entryY=0.5;entryDx=0;entryDy=0;startArrow=none;startFill=0;endArrow=openThin;endFill=0;" edge="1" parent="1" source="_kQpHTSrU0ZWc6XCJ_GE-33" target="_kQpHTSrU0ZWc6XCJ_GE-35">
          <mxGeometry relative="1" as="geometry" />
        </mxCell>
        <mxCell id="_kQpHTSrU0ZWc6XCJ_GE-33" value="outfit service" style="rounded=0;whiteSpace=wrap;html=1;" vertex="1" parent="1">
          <mxGeometry x="400" y="940" width="120" height="60" as="geometry" />
        </mxCell>
        <mxCell id="_kQpHTSrU0ZWc6XCJ_GE-34" style="edgeStyle=orthogonalEdgeStyle;rounded=0;sketch=0;orthogonalLoop=1;jettySize=auto;html=1;exitX=1;exitY=0.5;exitDx=0;exitDy=0;entryX=0;entryY=0.5;entryDx=0;entryDy=0;entryPerimeter=0;startArrow=none;startFill=0;endArrow=openThin;endFill=0;" edge="1" parent="1" source="_kQpHTSrU0ZWc6XCJ_GE-35" target="_kQpHTSrU0ZWc6XCJ_GE-36">
          <mxGeometry relative="1" as="geometry" />
        </mxCell>
        <mxCell id="_kQpHTSrU0ZWc6XCJ_GE-35" value="outfit repository" style="rounded=0;whiteSpace=wrap;html=1;" vertex="1" parent="1">
          <mxGeometry x="580" y="940" width="120" height="60" as="geometry" />
        </mxCell>
        <mxCell id="_kQpHTSrU0ZWc6XCJ_GE-36" value="DB" style="shape=cylinder3;whiteSpace=wrap;html=1;boundedLbl=1;backgroundOutline=1;size=15;" vertex="1" parent="1">
          <mxGeometry x="760" y="930" width="60" height="80" as="geometry" />
        </mxCell>
      </root>
    </mxGraphModel>
  </diagram>
</mxfile>
